<?xml version="1.0" standalone="no"?>
    <!DOCTYPE svg PUBLIC "-//W3C//DTD SVG 1.1//EN" "http://www.w3.org/Graphics/SVG/1.1/DTD/svg11.dtd">
    <svg width="100%" height="100%" viewBox="0 0 5334 3334" version="1.1" xmlns="http://www.w3.org/2000/svg" xmlns:xlink="http://www.w3.org/1999/xlink" xml:space="preserve">
        <g id="letters">
            <path d="M930.426,1206.06l145.697,0l101.436,349.273l99.898,-349.273l141.394,0l-167.214,485.34l-150.923,0l-170.288,-485.34Z" />
            <rect x="1470.18" y="1206.06" width="139.55" height="485.34" />
            <path d="M2009.63,1493.1l122.029,39.728c-8.197,36.858 -21.107,67.647 -38.73,92.366c-17.623,24.72 -39.498,43.37 -65.625,55.95c-26.127,12.581 -59.375,18.871 -99.745,18.871c-48.975,0 -88.986,-7.67 -120.031,-23.009c-31.045,-15.339 -57.839,-42.321 -80.38,-80.945c-22.541,-38.624 -33.811,-88.063 -33.811,-148.317c0,-80.338 19.826,-142.082 59.477,-185.23c39.652,-43.149 95.749,-64.723 168.291,-64.723c56.762,0 101.383,12.359 133.863,37.079c32.48,24.719 56.609,62.681 72.388,113.886l-122.952,29.465c-4.303,-14.788 -8.811,-25.603 -13.524,-32.445c-7.787,-11.477 -17.316,-20.305 -28.587,-26.485c-11.27,-6.18 -23.873,-9.27 -37.807,-9.27c-31.558,0 -55.738,13.684 -72.542,41.052c-12.705,20.306 -19.057,52.198 -19.057,95.678c0,53.853 7.582,90.767 22.746,110.741c15.164,19.974 36.475,29.961 63.935,29.961c26.639,0 46.772,-8.056 60.4,-24.168c13.627,-16.111 23.514,-39.507 29.662,-70.185Z" />
            <path d="M2198.98,1206.06l373.158,0l0,103.623l-233.608,0l0,77.138l216.703,0l0,98.988l-216.703,0l0,95.678l240.371,0l0,109.913l-379.921,0l0,-485.34Z" />
            <path d="M2653.9,1206.06l139.243,0l0,365.826l217.317,0l0,119.514l-356.56,0l0,-485.34Z" />
            <path d="M3351.04,1611.29l-158.608,0l-21.824,80.117l-142.316,0l169.366,-485.34l151.845,0l169.366,485.34l-145.698,0l-22.131,-80.117ZM3321.84,1506.34l-49.796,-174.47l-49.488,174.47l99.284,0Z" />
            <path d="M3564.36,1206.06l130.021,0l169.674,268.493l0,-268.493l131.25,0l0,485.34l-131.25,0l-168.752,-266.506l0,266.506l-130.943,0l0,-485.34Z" />
            <path d="M4089.67,1206.06l206.866,0c40.779,0 73.72,5.96 98.822,17.878c25.103,11.918 45.851,29.023 62.245,51.315c16.393,22.291 28.278,48.225 35.656,77.8c7.377,29.575 11.065,60.916 11.065,94.022c0,51.867 -5.481,92.091 -16.445,120.673c-10.963,28.582 -26.178,52.529 -45.645,71.841c-19.468,19.312 -40.37,32.168 -62.706,38.569c-30.533,8.828 -58.197,13.242 -82.992,13.242l-206.866,0l0,-485.34ZM4228.91,1315.98l0,265.182l34.119,0c29.098,0 49.795,-3.476 62.09,-10.429c12.295,-6.952 21.927,-19.091 28.894,-36.417c6.967,-17.325 10.451,-45.411 10.451,-84.255c0,-51.426 -7.787,-86.629 -23.361,-105.61c-15.574,-18.981 -41.394,-28.471 -77.46,-28.471l-34.733,0Z" />
        </g>
    </svg>
